# xmcd
#
# Track frame offsets:
#	150
#	13374
#	27913
#	43495
#	63689
#	81256
#	103790
#	123179
#	145156
#	166118
#	183762
#	194158
#	213536
#	234293
#	250027
#	266542
#	286572
#	305560
#
# Disc length: 4267 seconds
#
# Revision: 6
# Processed by: cddbd v1.5.2PL0 Copyright (c) Steve Scherf et al.
# Submitted via: dBpowerAMP V4.0
#
DISCID=0410a912
DTITLE=Various Artist - Get The Blues!
DYEAR=2001
DGENRE=Blues
TTITLE0=Robert Cray - Baby's Arms
TTITLE1=Lucky Peterson - Remember the Day
TTITLE2=Delbert McClinton - Baggage Claim
TTITLE3=Shemekia Copeland - Its 2 AM
TTITLE4=Keb' Mo' - The Door
TTITLE5=Johnnie Taylor - Last Two Dollars
TTITLE6=Roomful of Blues - The Salt of my Tears
TTITLE7=EG Kight - Let the Healing Begin
TTITLE8=Sunnyland Slim - You Can't Have it All
TTITLE9=Tommy Castro - Lucky in Love
TTITLE10=RL Burnside - Miss Maybelle
TTITLE11=Big Bill Morganfield - Highway 69
TTITLE12=Walter Trout - Ride Till I'm Satisfied
TTITLE13=Otis Taylor - My Soul's in Louisiana
TTITLE14=Stevie Ray Vaughan - Pride and Joy
TTITLE15=Rory Block - Talkin' 'bout my Man
TTITLE16=Koko Taylor - Dont Let me Catch You (With Your Drawers Down)
TTITLE17=Honeyboy Edwards - Wind Howlin' Blues
EXTD=
EXTT0=
EXTT1=
EXTT2=
EXTT3=
EXTT4=
EXTT5=
EXTT6=
EXTT7=
EXTT8=
EXTT9=
EXTT10=
EXTT11=
EXTT12=
EXTT13=
EXTT14=
EXTT15=
EXTT16=
EXTT17=
PLAYORDER=
